<svg width="181" height="60" viewBox="0 0 181 60" fill="none" xmlns="http://www.w3.org/2000/svg">
<g clip-path="url(#clip0_3296_18694)">
<path d="M166.469 0.000195H14.4117C13.8574 0.000195 13.3098 0.000195 12.757 0.003195C12.2942 0.006195 11.8352 0.01491 11.368 0.022245C10.353 0.0340977 9.34048 0.122709 8.3391 0.28731C7.33913 0.455494 6.37048 0.772569 5.46592 1.22781C4.56247 1.6869 3.73695 2.28345 3.01933 2.9958C2.29794 3.70615 1.6966 4.52722 1.23845 5.42743C0.779028 6.32586 0.460464 7.2886 0.29376 8.28241C0.125471 9.27497 0.0349132 10.279 0.0228992 11.2854C0.00887251 11.7453 0.00739124 12.2067 0 12.6667V47.3381C0.00739124 47.8038 0.00887251 48.255 0.0228992 48.7209C0.0349169 49.7273 0.125475 50.7313 0.29376 51.7238C0.460004 52.7182 0.778587 53.6815 1.23845 54.5802C1.6964 55.4775 2.29782 56.2953 3.01933 57.0017C3.73423 57.7172 4.56028 58.3142 5.46592 58.7697C6.37048 59.2262 7.33902 59.5452 8.3391 59.7159C9.34065 59.8792 10.3531 59.9679 11.368 59.9811C11.8352 59.9913 12.2942 59.9972 12.757 59.9972C13.3098 60.0002 13.8574 60.0002 14.4117 60.0002H166.469C167.012 60.0002 167.564 60.0002 168.107 59.9972C168.568 59.9972 169.04 59.9913 169.501 59.9811C170.514 59.9686 171.524 59.8799 172.524 59.7159C173.527 59.544 174.499 59.2251 175.408 58.7697C176.313 58.3139 177.138 57.717 177.852 57.0017C178.572 56.2925 179.175 55.4754 179.638 54.5802C180.095 53.6808 180.41 52.7176 180.574 51.7238C180.743 50.7311 180.836 49.7274 180.855 48.7209C180.861 48.255 180.861 47.8038 180.861 47.3381C180.872 46.7931 180.872 46.2512 180.872 45.6974V14.3044C180.872 13.7551 180.872 13.2102 180.861 12.6667C180.861 12.2067 180.861 11.7453 180.855 11.2854C180.836 10.2788 180.743 9.27505 180.574 8.28235C180.41 7.28912 180.094 6.32645 179.638 5.42737C178.705 3.62299 177.226 2.15423 175.408 1.22767C174.499 0.773546 173.527 0.456556 172.524 0.287175C171.524 0.121849 170.514 0.0332066 169.501 0.022035C169.04 0.014715 168.568 0.005925 168.107 0.003C167.564 0 167.012 0.000195 166.469 0.000195Z" fill="#A6A6A6"/>
<path d="M12.7641 58.6875C12.3036 58.6875 11.8542 58.6816 11.3973 58.6714C10.4508 58.6592 9.50647 58.5774 8.57211 58.4268C7.70086 58.2779 6.85686 58.0009 6.06794 57.6049C5.28626 57.2123 4.5733 56.6974 3.95638 56.08C3.33052 55.47 2.80947 54.7624 2.41387 53.9853C2.01391 53.2032 1.73712 52.3648 1.59313 51.4995C1.43763 50.5697 1.3535 49.6295 1.34146 48.687C1.33188 48.3707 1.31934 47.3174 1.31934 47.3174V12.6665C1.31934 12.6665 1.3327 11.6294 1.34154 11.3247C1.35307 10.3837 1.43671 9.44498 1.59174 8.51659C1.73599 7.64888 2.013 6.80812 2.41318 6.02344C2.80733 5.24692 3.32548 4.53879 3.94756 3.92652C4.56895 3.30843 5.28419 2.79091 6.0672 2.39281C6.85431 1.99814 7.69671 1.7231 8.5662 1.57691C9.50363 1.42475 10.4512 1.34249 11.401 1.33082L12.7649 1.3125H168.1L169.48 1.33155C170.421 1.34265 171.36 1.42417 172.289 1.57543C173.167 1.72346 174.018 2.00042 174.814 2.39721C176.383 3.19948 177.659 4.46874 178.465 6.02711C178.858 6.80637 179.131 7.64026 179.274 8.50048C179.43 9.43649 179.518 10.3826 179.536 11.3313C179.541 11.7561 179.541 12.2124 179.541 12.6665C179.553 13.229 179.553 13.7644 179.553 14.3042V45.6972C179.553 46.2421 179.553 46.7739 179.541 47.31C179.541 47.7978 179.541 48.2446 179.535 48.7046C179.517 49.6363 179.431 50.5655 179.276 51.4848C179.135 52.3564 178.86 53.2013 178.46 53.9898C178.062 54.7584 177.544 55.4599 176.925 56.0683C176.308 56.689 175.593 57.2069 174.81 57.6021C174.016 58.0011 173.166 58.2791 172.289 58.4268C171.354 58.5782 170.41 58.66 169.464 58.6714C169.021 58.6816 168.557 58.6875 168.107 58.6875L166.469 58.6905L12.7641 58.6875Z" fill="black"/>
<path d="M37.4379 30.4507C37.4542 29.1987 37.7893 27.9712 38.4121 26.8822C39.0348 25.7933 39.9251 24.8784 40.9999 24.2226C40.3171 23.2549 39.4163 22.4585 38.3691 21.8967C37.3219 21.3348 36.1571 21.0231 34.9672 20.9861C32.4291 20.7217 29.9684 22.4934 28.675 22.4934C27.3566 22.4934 25.3652 21.0124 23.2208 21.0562C21.8337 21.1006 20.4819 21.5009 19.297 22.218C18.1122 22.9351 17.1348 23.9445 16.4599 25.148C13.5367 30.1706 15.7172 37.5522 18.5174 41.6121C19.9184 43.6001 21.5558 45.8208 23.6982 45.742C25.7948 45.6557 26.5778 44.4153 29.1085 44.4153C31.6157 44.4153 32.3504 45.742 34.5363 45.692C36.786 45.6557 38.2034 43.6951 39.5553 41.6883C40.5619 40.2717 41.3365 38.7061 41.8504 37.0495C40.5434 36.5009 39.428 35.5826 38.6433 34.4092C37.8587 33.2357 37.4395 31.859 37.4379 30.4507Z" fill="white"/>
<path d="M33.309 18.3163C34.5357 16.8549 35.14 14.9767 34.9936 13.0803C33.1196 13.2757 31.3886 14.1645 30.1454 15.5697C29.5375 16.2562 29.072 17.0549 28.7754 17.92C28.4787 18.7852 28.3568 19.6999 28.4166 20.6118C29.354 20.6214 30.2813 20.4198 31.1287 20.0221C31.9762 19.6245 32.7217 19.0412 33.309 18.3163Z" fill="white"/>
<path d="M63.9397 40.7094H56.7852L55.067 45.7441H52.0366L58.8133 27.1171H61.9617L68.7384 45.7441H65.6563L63.9397 40.7094ZM57.5261 38.3861H63.1973L60.4016 30.2152H60.3234L57.5261 38.3861Z" fill="white"/>
<path d="M83.3735 38.9544C83.3735 43.1746 81.0974 45.8861 77.6626 45.8861C76.7925 45.9312 75.9272 45.7323 75.1657 45.3121C74.4042 44.8919 73.7773 44.2674 73.3569 43.5101H73.2919V50.2366H70.4829V32.1634H73.2019V34.4222H73.2535C73.6933 33.6685 74.3308 33.0472 75.0981 32.6244C75.8653 32.2017 76.7338 31.9932 77.6109 32.0213C81.0841 32.0213 83.3735 34.7459 83.3735 38.9544ZM80.4863 38.9544C80.4863 36.2049 79.0545 34.3973 76.8699 34.3973C74.7237 34.3973 73.2801 36.243 73.2801 38.9544C73.2801 41.6908 74.7237 43.5233 76.8699 43.5233C79.0545 43.5233 80.4863 41.7288 80.4863 38.9544Z" fill="white"/>
<path d="M98.4355 38.9544C98.4355 43.1746 96.1594 45.886 92.7246 45.886C91.8545 45.9312 90.9892 45.7323 90.2277 45.3121C89.4662 44.8919 88.8393 44.2674 88.4189 43.51H88.3539V50.2366H85.5449V32.1634H88.2638V34.4222H88.3155C88.7553 33.6685 89.3927 33.0472 90.16 32.6244C90.9273 32.2017 91.7957 31.9932 92.6729 32.0213C96.1461 32.0213 98.4355 34.7459 98.4355 38.9544ZM95.5483 38.9544C95.5483 36.2049 94.1165 34.3973 91.9319 34.3973C89.7857 34.3973 88.3421 36.243 88.3421 38.9544C88.3421 41.6907 89.7857 43.5233 91.9319 43.5233C94.1165 43.5233 95.5483 41.7288 95.5483 38.9544Z" fill="white"/>
<path d="M108.39 40.5542C108.598 42.4013 110.406 43.6142 112.877 43.6142C115.245 43.6142 116.948 42.4013 116.948 40.7357C116.948 39.2899 115.921 38.4242 113.488 37.8309L111.056 37.2494C107.609 36.4232 106.009 34.8236 106.009 32.2279C106.009 29.014 108.831 26.8065 112.839 26.8065C116.805 26.8065 119.524 29.014 119.616 32.2279H116.78C116.61 30.369 115.062 29.247 112.799 29.247C110.536 29.247 108.988 30.3822 108.988 32.0346C108.988 33.3515 109.977 34.1264 112.396 34.7196L114.464 35.2235C118.315 36.1273 119.915 37.6625 119.915 40.387C119.915 43.8719 117.118 46.0545 112.669 46.0545C108.507 46.0545 105.696 43.9232 105.515 40.554L108.39 40.5542Z" fill="white"/>
<path d="M125.978 28.9496V32.1635H128.58V34.371H125.978V41.8578C125.978 43.0209 126.499 43.5629 127.643 43.5629C127.951 43.5575 128.26 43.536 128.567 43.4984V45.6927C128.052 45.7881 127.529 45.8313 127.006 45.8216C124.236 45.8216 123.155 44.7889 123.155 42.1551V34.371H121.166V32.1635H123.155V28.9496H125.978Z" fill="white"/>
<path d="M130.087 38.9545C130.087 34.6815 132.623 31.9965 136.577 31.9965C140.545 31.9965 143.069 34.6815 143.069 38.9545C143.069 43.2391 140.558 45.9125 136.577 45.9125C132.598 45.9125 130.087 43.2391 130.087 38.9545ZM140.207 38.9545C140.207 36.0233 138.853 34.2933 136.577 34.2933C134.301 34.2933 132.949 36.0365 132.949 38.9545C132.949 41.8973 134.301 43.6141 136.577 43.6141C138.853 43.6141 140.207 41.8973 140.207 38.9545Z" fill="white"/>
<path d="M145.385 32.1633H148.064V34.4748H148.129C148.31 33.7528 148.736 33.1148 149.336 32.668C149.935 32.2212 150.671 31.9928 151.42 32.0212C151.744 32.02 152.067 32.0549 152.383 32.1252V34.7326C151.974 34.6087 151.548 34.5518 151.121 34.5641C150.713 34.5477 150.306 34.6191 149.928 34.7734C149.551 34.9278 149.211 35.1614 148.933 35.4582C148.655 35.755 148.445 36.1081 148.317 36.4931C148.19 36.8781 148.148 37.2859 148.194 37.6886V45.7438H145.385L145.385 32.1633Z" fill="white"/>
<path d="M165.334 41.7552C164.956 44.2206 162.537 45.9125 159.442 45.9125C155.461 45.9125 152.99 43.2655 152.99 39.0189C152.99 34.7592 155.474 31.9965 159.324 31.9965C163.11 31.9965 165.491 34.5775 165.491 38.6952V39.6503H155.825V39.8187C155.781 40.3185 155.844 40.822 156.01 41.2958C156.177 41.7695 156.443 42.2027 156.791 42.5665C157.139 42.9304 157.562 43.2165 158.03 43.406C158.498 43.5954 159.001 43.6839 159.507 43.6654C160.17 43.7271 160.837 43.5746 161.406 43.2304C161.975 42.8862 162.418 42.3689 162.667 41.7552L165.334 41.7552ZM155.839 37.702H162.68C162.705 37.2526 162.637 36.8029 162.479 36.3811C162.32 35.9593 162.076 35.5745 161.761 35.2508C161.446 34.9272 161.066 34.6717 160.647 34.5004C160.228 34.329 159.777 34.2456 159.324 34.2552C158.866 34.2525 158.413 34.3398 157.989 34.5119C157.566 34.684 157.181 34.9376 156.857 35.258C156.533 35.5785 156.277 35.9594 156.102 36.3789C155.927 36.7984 155.837 37.2481 155.839 37.702Z" fill="white"/>
<path d="M57.1742 13.0965C57.7631 13.0545 58.354 13.1428 58.9044 13.355C59.4547 13.5671 59.9508 13.8978 60.3568 14.3233C60.7627 14.7487 61.0685 15.2583 61.252 15.8152C61.4355 16.3721 61.4922 16.9624 61.4179 17.5437C61.4179 20.4031 59.8607 22.0467 57.1742 22.0467H53.9165V13.0965H57.1742ZM55.3173 20.781H57.0177C57.4385 20.8059 57.8597 20.7375 58.2504 20.5805C58.6412 20.4236 58.9918 20.1822 59.2767 19.8738C59.5616 19.5655 59.7737 19.198 59.8974 18.798C60.0212 18.3981 60.0535 17.9758 59.992 17.562C60.049 17.1497 60.0134 16.7301 59.8878 16.3331C59.7621 15.9361 59.5496 15.5716 59.2653 15.2657C58.9811 14.9598 58.6321 14.7201 58.2436 14.5637C57.855 14.4073 57.4364 14.3382 57.0177 14.3613H55.3173V20.781Z" fill="white"/>
<path d="M63.0005 18.6666C62.9577 18.2227 63.0089 17.7748 63.1508 17.3517C63.2926 16.9286 63.522 16.5396 63.8242 16.2096C64.1264 15.8797 64.4948 15.616 64.9057 15.4356C65.3166 15.2552 65.7609 15.162 66.2103 15.162C66.6596 15.162 67.1039 15.2552 67.5149 15.4356C67.9258 15.616 68.2941 15.8797 68.5963 16.2096C68.8985 16.5396 69.1279 16.9286 69.2698 17.3517C69.4116 17.7748 69.4628 18.2227 69.42 18.6666C69.4636 19.1109 69.413 19.5594 69.2716 19.9831C69.1301 20.4069 68.9009 20.7967 68.5986 21.1273C68.2963 21.4579 67.9276 21.7221 67.5163 21.9029C67.105 22.0837 66.6601 22.1771 66.2103 22.1771C65.7604 22.1771 65.3155 22.0837 64.9042 21.9029C64.4929 21.7221 64.1242 21.4579 63.822 21.1273C63.5197 20.7967 63.2904 20.4069 63.149 19.9831C63.0075 19.5594 62.9569 19.1109 63.0005 18.6666ZM68.0384 18.6666C68.0384 17.2024 67.3756 16.3463 66.2125 16.3463C65.0449 16.3463 64.3881 17.2025 64.3881 18.6666C64.3881 20.1424 65.0449 20.992 66.2125 20.992C67.3756 20.992 68.0384 20.1365 68.0384 18.6666Z" fill="white"/>
<path d="M77.9531 22.0466H76.5596L75.1529 17.072H75.0467L73.6459 22.0466H72.2657L70.3896 15.2922H71.7521L72.9713 20.4462H73.0717L74.471 15.2922H75.7596L77.1589 20.4462H77.2652L78.4785 15.2922H79.8218L77.9531 22.0466Z" fill="white"/>
<path d="M81.3994 15.2923H82.6925V16.3653H82.7928C82.9631 15.9799 83.2503 15.6569 83.6144 15.4411C83.9785 15.2254 84.4013 15.1278 84.8239 15.1619C85.1551 15.1372 85.4876 15.1868 85.7969 15.3069C86.1061 15.4271 86.3842 15.6147 86.6104 15.856C86.8366 16.0972 87.0053 16.3859 87.1039 16.7007C87.2024 17.0154 87.2283 17.3481 87.1797 17.6741V22.0466H85.8365V18.0089C85.8365 16.9234 85.3612 16.3836 84.3678 16.3836C84.143 16.3732 83.9185 16.4112 83.7098 16.4949C83.5012 16.5787 83.3132 16.7062 83.1588 16.8688C83.0045 17.0314 82.8874 17.2252 82.8155 17.4368C82.7437 17.6485 82.7188 17.8732 82.7426 18.0953V22.0467H81.3994L81.3994 15.2923Z" fill="white"/>
<path d="M89.3203 12.6555H90.6635V22.0466H89.3203V12.6555Z" fill="white"/>
<path d="M92.5308 18.6666C92.488 18.2227 92.5392 17.7748 92.6811 17.3517C92.823 16.9285 93.0524 16.5395 93.3546 16.2095C93.6569 15.8795 94.0253 15.6159 94.4362 15.4355C94.8471 15.2551 95.2915 15.1619 95.7409 15.1619C96.1902 15.1619 96.6346 15.2551 97.0455 15.4355C97.4565 15.6159 97.8249 15.8795 98.1271 16.2095C98.4294 16.5395 98.6588 16.9285 98.8006 17.3517C98.9425 17.7748 98.9937 18.2227 98.951 18.6666C98.9945 19.1109 98.9439 19.5594 98.8024 19.9832C98.6609 20.407 98.4316 20.7967 98.1293 21.1273C97.827 21.4579 97.4583 21.7221 97.047 21.9029C96.6356 22.0837 96.1907 22.1771 95.7409 22.1771C95.291 22.1771 94.8461 22.0837 94.4348 21.9029C94.0234 21.7221 93.6548 21.4579 93.3524 21.1273C93.0501 20.7967 92.8208 20.407 92.6793 19.9832C92.5378 19.5594 92.4872 19.1109 92.5308 18.6666ZM97.5686 18.6666C97.5686 17.2025 96.9058 16.3463 95.7427 16.3463C94.5751 16.3463 93.9183 17.2025 93.9183 18.6666C93.9183 20.1424 94.5752 20.992 95.7427 20.992C96.9059 20.992 97.5686 20.1365 97.5686 18.6666Z" fill="white"/>
<path d="M100.365 20.1365C100.365 18.9206 101.277 18.2197 102.896 18.1201L104.74 18.0146V17.4316C104.74 16.7183 104.265 16.3154 103.346 16.3154C102.597 16.3154 102.077 16.5886 101.928 17.0662H100.627C100.765 15.906 101.864 15.1619 103.408 15.1619C105.115 15.1619 106.077 16.0049 106.077 17.4316V22.0466H104.784V21.0974H104.678C104.462 21.4379 104.159 21.7155 103.8 21.9018C103.441 22.0881 103.038 22.1765 102.633 22.1579C102.348 22.1874 102.059 22.1572 101.786 22.0691C101.513 21.9811 101.261 21.8372 101.047 21.6467C100.833 21.4563 100.662 21.2235 100.545 20.9633C100.427 20.7032 100.366 20.4215 100.365 20.1365ZM104.74 19.5593V18.9946L103.078 19.1001C102.14 19.1623 101.715 19.4787 101.715 20.0742C101.715 20.6821 102.247 21.0359 102.977 21.0359C103.192 21.0574 103.408 21.0359 103.613 20.9728C103.819 20.9096 104.01 20.8061 104.174 20.6684C104.338 20.5306 104.473 20.3614 104.571 20.1709C104.668 19.9804 104.725 19.7724 104.74 19.5593Z" fill="white"/>
<path d="M107.843 18.6665C107.843 16.5323 108.948 15.1802 110.668 15.1802C111.093 15.1607 111.515 15.2619 111.885 15.4717C112.255 15.6815 112.556 15.9914 112.755 16.3652H112.856V12.6555H114.199V22.0466H112.912V20.9795H112.805C112.591 21.3507 112.279 21.6568 111.902 21.8645C111.526 22.0722 111.099 22.1737 110.668 22.1579C108.937 22.158 107.843 20.8059 107.843 18.6665ZM109.23 18.6665C109.23 20.0991 109.911 20.9612 111.049 20.9612C112.181 20.9612 112.881 20.0867 112.881 18.6724C112.881 17.2647 112.174 16.3777 111.049 16.3777C109.918 16.3777 109.23 17.2456 109.23 18.6665Z" fill="white"/>
<path d="M119.756 18.6666C119.713 18.2227 119.764 17.7748 119.906 17.3517C120.048 16.9286 120.277 16.5396 120.58 16.2096C120.882 15.8797 121.25 15.616 121.661 15.4356C122.072 15.2552 122.516 15.162 122.966 15.162C123.415 15.162 123.859 15.2552 124.27 15.4356C124.681 15.616 125.049 15.8797 125.352 16.2096C125.654 16.5396 125.883 16.9286 126.025 17.3517C126.167 17.7748 126.218 18.2227 126.175 18.6666C126.219 19.1109 126.168 19.5594 126.027 19.9831C125.885 20.4069 125.656 20.7967 125.354 21.1273C125.052 21.4579 124.683 21.7221 124.272 21.9029C123.86 22.0837 123.415 22.1771 122.966 22.1771C122.516 22.1771 122.071 22.0837 121.66 21.9029C121.248 21.7221 120.88 21.4579 120.577 21.1273C120.275 20.7967 120.046 20.4069 119.904 19.9831C119.763 19.5594 119.712 19.1109 119.756 18.6666ZM124.794 18.6666C124.794 17.2024 124.131 16.3463 122.968 16.3463C121.8 16.3463 121.143 17.2025 121.143 18.6666C121.143 20.1424 121.8 20.992 122.968 20.992C124.131 20.992 124.794 20.1365 124.794 18.6666Z" fill="white"/>
<path d="M127.978 15.2923H129.271V16.3653H129.371C129.542 15.9799 129.829 15.6569 130.193 15.4411C130.557 15.2254 130.98 15.1278 131.403 15.1619C131.734 15.1372 132.066 15.1868 132.375 15.3069C132.685 15.4271 132.963 15.6147 133.189 15.856C133.415 16.0972 133.584 16.3859 133.682 16.7007C133.781 17.0154 133.807 17.3481 133.758 17.6741V22.0466H132.415V18.0089C132.415 16.9234 131.94 16.3836 130.946 16.3836C130.722 16.3732 130.497 16.4112 130.288 16.4949C130.08 16.5787 129.892 16.7062 129.737 16.8688C129.583 17.0314 129.466 17.2252 129.394 17.4368C129.322 17.6485 129.297 17.8732 129.321 18.0953V22.0467H127.978V15.2923Z" fill="white"/>
<path d="M141.348 13.6106V15.323H142.823V16.4458H141.348V19.9189C141.348 20.6265 141.642 20.9363 142.31 20.9363C142.482 20.9357 142.653 20.9255 142.823 20.9055V22.0159C142.581 22.0587 142.337 22.0815 142.092 22.084C140.598 22.084 140.003 21.5625 140.003 20.2602V16.4457H138.923V15.3229H140.003V13.6106H141.348Z" fill="white"/>
<path d="M144.658 12.6555H145.989V16.3777H146.095C146.274 15.9887 146.569 15.6638 146.94 15.4473C147.312 15.2308 147.741 15.1332 148.171 15.1677C148.5 15.1499 148.829 15.2045 149.135 15.3276C149.441 15.4507 149.716 15.6392 149.939 15.8797C150.163 16.1202 150.331 16.4068 150.43 16.719C150.53 17.0312 150.559 17.3613 150.515 17.6858V22.0466H149.17V18.0146C149.17 16.9358 148.664 16.3894 147.715 16.3894C147.484 16.3706 147.252 16.4021 147.034 16.4817C146.817 16.5613 146.62 16.687 146.457 16.8501C146.293 17.0132 146.168 17.2097 146.089 17.426C146.011 17.6422 145.98 17.8728 146.001 18.1018V22.0466H144.658L144.658 12.6555Z" fill="white"/>
<path d="M158.347 20.2229C158.164 20.8402 157.769 21.3742 157.23 21.7314C156.691 22.0886 156.042 22.2463 155.398 22.177C154.949 22.1887 154.504 22.1035 154.092 21.9272C153.68 21.7509 153.312 21.4878 153.012 21.1561C152.713 20.8244 152.49 20.432 152.359 20.0063C152.228 19.5806 152.192 19.1316 152.254 18.6907C152.194 18.2483 152.231 17.7984 152.361 17.3714C152.492 16.9444 152.714 16.5503 153.011 16.2157C153.309 15.8811 153.675 15.6138 154.086 15.432C154.497 15.2502 154.942 15.1581 155.392 15.1619C157.286 15.1619 158.428 16.4459 158.428 18.5669V19.032H153.622V19.1067C153.601 19.3546 153.632 19.6041 153.714 19.8392C153.796 20.0743 153.926 20.2899 154.097 20.4721C154.268 20.6542 154.475 20.799 154.705 20.8971C154.935 20.9952 155.184 21.0445 155.435 21.0417C155.756 21.08 156.081 21.0226 156.37 20.8767C156.658 20.7309 156.896 20.5033 157.054 20.2228L158.347 20.2229ZM153.622 18.0461H157.06C157.077 17.8194 157.046 17.5917 156.969 17.3777C156.892 17.1636 156.77 16.9679 156.612 16.8031C156.455 16.6383 156.264 16.5081 156.052 16.4208C155.841 16.3336 155.613 16.2912 155.384 16.2964C155.152 16.2935 154.921 16.3368 154.706 16.4237C154.491 16.5106 154.296 16.6394 154.131 16.8025C153.967 16.9655 153.837 17.1596 153.75 17.3732C153.662 17.5868 153.619 17.8156 153.622 18.0461Z" fill="white"/>
</g>
<defs>
<clipPath id="clip0_3296_18694">
<rect width="180.872" height="60" fill="white"/>
</clipPath>
</defs>
</svg>
